<svg id="Layer_1" enable-background="new 0 0 512 512" height="512" viewBox="0 0 512 512" width="512" xmlns="http://www.w3.org/2000/svg"><g><path d="m186.9 264.731-97.581 135.286c-6.426 8.962-4.362 21.481 4.6 27.908 3.521 2.524 7.592 3.738 11.626 3.738 6.233 0 12.381-2.897 16.281-8.337l75.301-105.018z" fill="#51697a"/><path d="m325.1 264.731 97.581 135.286c6.426 8.962 4.362 21.481-4.6 27.908-3.521 2.524-7.592 3.738-11.626 3.738-6.233 0-12.381-2.897-16.281-8.337l-75.301-105.018z" fill="#51697a"/><path d="m407.43 154.924c0 43.34-35.26 78.6-78.6 78.6v51.09c0 40.22-32.6 72.83-72.83 72.83h-.03c-40.22-.02-72.8-32.62-72.8-72.83v-51.09c-43.34 0-78.6-35.26-78.6-78.6l15-10 15 10c0 26.8 21.8 48.6 48.6 48.6 6.26 0 11.85-3.82 14.26-9.59 9.57-22.91 32.19-39.01 58.57-39.01s49 16.1 58.57 39.01c2.41 5.77 8 9.59 14.26 9.59 26.8 0 48.6-21.8 48.6-48.6l15-10z" fill="#e5f5f9"/><path d="m407.43 154.924c0 43.34-35.26 78.6-78.6 78.6v51.09c0 40.22-32.6 72.83-72.83 72.83h-.03c42.68-11.76 57.7-46.9 57.86-72.83v-66.09h15c35.07 0 63.6-28.53 63.6-63.6v-10z" fill="#bfd5dd"/><path d="m296.68 284.064c0 22.46-18.22 40.68-40.68 40.68-3.99 0-7.85-.58-11.5-1.65-16.86-4.96-29.18-20.56-29.18-39.03s12.32-34.06 29.18-39.02c3.65-1.07 7.51-1.65 11.5-1.65 22.46 0 40.68 18.21 40.68 40.67z" fill="#5cd5ff"/><path d="m296.68 284.064c0 22.46-18.22 40.68-40.68 40.68-3.99 0-7.85-.58-11.5-1.65 16.86-4.96 29.18-20.56 29.18-39.03s-12.32-34.06-29.18-39.02c3.65-1.07 7.51-1.65 11.5-1.65 22.46 0 40.68 18.21 40.68 40.67z" fill="#5ab5ff"/><path d="m270.515 186.733h-29.029c-4.143 0-7.5 3.357-7.5 7.5s3.357 7.5 7.5 7.5h29.029c4.143 0 7.5-3.357 7.5-7.5s-3.358-7.5-7.5-7.5z" fill="#9aaeb7"/><g><path d="m139.286 119.761h-39.425v-19.712c0-10.887 8.825-19.712 19.712-19.712 10.887 0 19.712 8.825 19.712 19.712v19.712z" fill="#51697a"/><path d="m157.16 119.764v29.54c0 3.11-2.52 5.62-5.63 5.62h-63.92c-3.1 0-5.62-2.51-5.62-5.62v-29.54z" fill="#51697a"/><path d="m157.16 119.764v29.54c0 3.11-2.52 5.62-5.63 5.62h-25c3.11 0 5.63-2.51 5.63-5.62v-29.54z" fill="#354c5b"/><path d="m231.646 112.261h-224.146c-4.143 0-7.5 3.357-7.5 7.5s3.357 7.5 7.5 7.5h224.146c4.143 0 7.5-3.357 7.5-7.5s-3.357-7.5-7.5-7.5z" fill="#bfd5dd"/></g><g><path d="m412.139 119.761h-39.424v-19.712c0-10.887 8.825-19.712 19.712-19.712 10.887 0 19.712 8.825 19.712 19.712z" fill="#51697a"/><path d="m424.387 154.929h-63.921c-3.106 0-5.624-2.518-5.624-5.623v-29.544h75.168v29.544c.001 3.105-2.517 5.623-5.623 5.623z" fill="#51697a"/><path d="m430.011 119.764v29.54c0 3.11-2.52 5.62-5.63 5.62h-25c3.11 0 5.63-2.51 5.63-5.62v-29.54z" fill="#354c5b"/><path d="m504.5 112.261h-224.146c-4.143 0-7.5 3.357-7.5 7.5s3.357 7.5 7.5 7.5h224.146c4.143 0 7.5-3.357 7.5-7.5s-3.357-7.5-7.5-7.5z" fill="#bfd5dd"/></g></g></svg>